<?xml version="1.0" standalone="no"?>
<!DOCTYPE svg PUBLIC "-//W3C//DTD SVG 20010904//EN"
 "http://www.w3.org/TR/2001/REC-SVG-20010904/DTD/svg10.dtd">
<svg version="1.0" xmlns="http://www.w3.org/2000/svg"
 width="512.000000pt" height="512.000000pt" viewBox="0 0 512.000000 512.000000"
 preserveAspectRatio="xMidYMid meet">
<metadata>
Created by potrace 1.14, written by Peter Selinger 2001-2017
</metadata>
<g transform="translate(0.000000,512.000000) scale(0.100000,-0.100000)"
fill="#000000" stroke="none">
<path d="M1618 4193 l-938 -535 0 -1129 0 -1129 37 -24 c81 -51 1844 -986
1860 -986 9 0 432 226 940 502 l923 502 0 1132 0 1132 -924 536 c-508 295
-933 536 -943 535 -10 0 -440 -242 -955 -536z m1862 -47 c470 -273 856 -500
858 -505 1 -4 -117 -79 -263 -167 -260 -156 -265 -159 -265 -191 0 -18 2 -33
4 -33 3 0 125 73 273 161 147 89 274 164 281 166 10 4 12 -212 10 -1072 l-3
-1078 -880 -479 -880 -478 -5 337 -5 338 -27 3 -28 3 0 -340 c0 -188 -3 -341
-7 -341 -5 0 -411 216 -903 479 l-895 479 -3 1076 c-1 592 1 1076 4 1076 3 0
128 -72 278 -160 150 -88 276 -160 280 -160 4 0 6 15 4 32 -3 31 -14 39 -263
186 -143 84 -261 156 -263 160 -1 4 402 238 895 519 853 486 899 510 923 498
14 -7 410 -237 880 -509z"/>
<path d="M2347 4072 l-217 -127 54 -3 c54 -3 60 0 222 95 92 54 171 97 175 96
4 -2 81 -46 170 -98 158 -93 165 -96 218 -93 l54 3 -217 128 c-119 70 -223
127 -229 127 -7 0 -110 -58 -230 -128z"/>
<path d="M1680 2474 l0 -1166 498 5 c547 5 559 6 734 71 144 54 239 117 364
241 159 158 246 310 300 522 88 348 32 723 -151 1008 -158 246 -450 434 -739
474 -46 7 -263 11 -542 11 l-464 0 0 -1166z m986 985 c439 -77 749 -449 771
-924 7 -156 -8 -272 -56 -411 -51 -153 -109 -250 -213 -358 -106 -112 -220
-186 -356 -232 -140 -48 -213 -54 -608 -54 l-354 0 0 995 0 995 378 0 c220 0
403 -4 438 -11z"/>
<path d="M1163 2818 c-4 -7 -9 -261 -11 -565 l-3 -551 48 -28 c26 -15 63 -36
81 -46 l32 -20 0 36 c0 31 -5 38 -50 63 l-50 28 0 503 c0 320 4 502 10 502 5
0 24 -9 42 -20 44 -27 48 -26 48 13 0 29 -6 35 -59 65 -66 35 -76 38 -88 20z"/>
<path d="M3883 2779 c-69 -38 -73 -43 -73 -75 l0 -35 65 36 65 37 -2 -503 -3
-503 -62 -36 c-57 -32 -63 -38 -63 -67 0 -18 2 -33 5 -33 10 0 165 93 175 105
7 8 9 196 8 561 -3 635 8 583 -115 513z"/>
</g>
</svg>
