<?xml version="1.0" standalone="no"?>
<!DOCTYPE svg PUBLIC "-//W3C//DTD SVG 20010904//EN"
 "http://www.w3.org/TR/2001/REC-SVG-20010904/DTD/svg10.dtd">
<svg version="1.0" xmlns="http://www.w3.org/2000/svg"
 width="132.000000pt" height="132.000000pt" viewBox="0 0 132.000000 132.000000"
 preserveAspectRatio="xMidYMid meet">
<metadata>
Created by potrace 1.14, written by Peter Selinger 2001-2017
</metadata>
<g transform="translate(0.000000,132.000000) scale(0.100000,-0.100000)"
fill="#000000" stroke="none">
<path d="M358 1162 l-268 -157 3 -355 2 -355 270 -147 c149 -81 281 -147 295
-147 14 0 147 66 295 147 l270 147 3 355 2 355 -270 158 c-207 120 -277 157
-302 156 -23 -1 -112 -47 -300 -157z m560 -39 c186 -108 231 -138 220 -148
-19 -18 -465 -275 -476 -275 -20 0 -493 283 -485 290 33 30 481 279 493 274 8
-3 120 -66 248 -141z m-525 -336 l237 -139 0 -289 0 -289 -98 52 c-53 29 -164
89 -245 133 l-147 79 0 299 c0 164 4 297 8 295 5 -1 115 -65 245 -141z m787
-156 l0 -299 -237 -129 c-130 -70 -241 -130 -245 -131 -4 -2 -8 127 -8 286 l0
290 238 140 c130 77 240 141 245 141 4 1 7 -134 7 -298z"/>
<path d="M505 1087 c-96 -57 -141 -89 -143 -102 -2 -16 25 -36 139 -102 78
-46 149 -83 159 -83 10 0 81 37 159 82 108 63 141 88 141 103 0 15 -35 40
-144 103 -78 45 -149 82 -157 82 -8 -1 -77 -38 -154 -83z m265 -38 c58 -33
106 -62 108 -64 4 -4 -187 -117 -208 -122 -23 -6 -235 118 -218 128 158 96
195 117 203 118 6 1 57 -26 115 -60z"/>
<path d="M227 764 c-4 -4 -7 -92 -7 -195 l0 -187 147 -80 c114 -62 152 -78
165 -71 16 9 18 28 18 188 l0 179 -140 82 c-144 84 -170 96 -183 84z m159
-135 l104 -61 0 -135 0 -134 -77 42 c-43 23 -93 51 -110 61 l-33 20 0 134 c0
74 3 134 6 134 3 0 52 -27 110 -61z"/>
<path d="M915 685 l-140 -83 -3 -183 c-2 -138 1 -184 10 -190 12 -8 226 98
291 143 l27 20 -2 186 c-3 179 -4 187 -23 189 -11 1 -83 -36 -160 -82z m128
-266 c-9 -9 -210 -119 -218 -119 -3 0 -5 60 -5 133 l0 133 113 66 112 66 3
-136 c1 -74 -1 -139 -5 -143z"/>
</g>
</svg>
