<svg width="113" height="131" viewBox="0 0 113 131" fill="none" xmlns="http://www.w3.org/2000/svg">
<path fill-rule="evenodd" clip-rule="evenodd" d="M57.5029 0.135652C57.1944 -0.0438158 56.8137 -0.0453001 56.5039 0.131757L0.503861 32.1318C0.192286 32.3098 0 32.6411 0 33V100C0 100.369 0.202823 100.707 0.527779 100.881L56.5278 130.881C56.8251 131.041 57.1827 131.039 57.4789 130.878L112.479 100.878C112.8 100.703 113 100.366 113 100V33C113 32.6439 112.811 32.3147 112.503 32.1357L57.5029 0.135652ZM2 99.4013V34.75L19 44.7679V42.4464L2.99228 33.0133L56.9955 2.15432L110.034 33.0132L94 42.6338V44.9662L111 34.7662V99.4064L58 128.315V108H56V128.33L2 99.4013ZM19 59.2764L15.7692 57.4007C15.4611 57.2218 15.0811 57.2203 14.7717 57.3968C14.4623 57.5733 14.27 57.901 14.2671 58.2573L14 90.7431C13.997 91.1062 14.1912 91.4424 14.5071 91.6214L19 94.1663V91.8678L16.0048 90.1712L16.2529 59.9941L19 61.589V59.2764ZM94 94.63L99.1914 91.6161C99.4989 91.4376 99.6884 91.1092 99.6893 90.7537L99.7671 58.467C99.7679 58.1108 99.5792 57.781 99.2717 57.6012C98.9641 57.4215 98.5842 57.4189 98.2742 57.5945L94 60.0156V62.3141L97.7629 60.1827L97.6907 90.1747L94 92.3174V94.63ZM70.8694 24L57.5071 16.1381C57.1941 15.954 56.8059 15.954 56.4929 16.1381L43.1306 24H47.0746L57 18.1602L66.9254 24H70.8694Z" fill="black"/>
<path d="M30 103V33H55.6C60.1333 33 64.3667 33.8667 68.3 35.6C72.3 37.3333 75.7667 39.7667 78.7 42.9C81.7 45.9667 84.0333 49.6333 85.7 53.9C87.3667 58.1667 88.2 62.8667 88.2 68C88.2 73.0667 87.3667 77.7333 85.7 82C84.0333 86.2667 81.7 89.9667 78.7 93.1C75.7667 96.2333 72.3 98.6667 68.3 100.4C64.3667 102.133 60.1333 103 55.6 103H30ZM35.2 98.8L34.5 97.9H55.1C58.9667 97.9 62.5667 97.1667 65.9 95.7C69.3 94.2333 72.2667 92.1667 74.8 89.5C77.3333 86.8333 79.3 83.6667 80.7 80C82.1667 76.3333 82.9 72.3333 82.9 68C82.9 63.6667 82.1667 59.6667 80.7 56C79.3 52.3333 77.3333 49.1667 74.8 46.5C72.2667 43.8333 69.3 41.7667 65.9 40.3C62.5667 38.8333 58.9667 38.1 55.1 38.1H34.3L35.2 37.1V98.8Z" fill="black"/>
</svg>
