<svg width="200" height="200" viewBox="0 0 200 200" fill="none" xmlns="http://www.w3.org/2000/svg">
    <g>
        <rect x="30.6938" y="44.1429" width="130.272" height="113.265" fill="white"/>
        <path d="M100.043 3.4454e-07C80.2651 3.4454e-07 60.9311 5.8649 44.4862 16.853C28.0413 27.8412 15.224 43.459 7.65524 61.7317C0.0864787 80.0043 -1.89385 100.111 1.96467 119.509C5.82319 138.907 15.3473 156.725 29.3325 170.711C43.3178 184.696 61.1361 194.22 80.5342 198.079C99.9323 201.937 120.039 199.957 138.312 192.388C156.584 184.819 172.202 172.002 183.19 155.557C194.178 139.112 200.043 119.778 200.043 100C200.044 86.8675 197.458 73.8634 192.433 61.7304C187.408 49.5973 180.042 38.573 170.756 29.2869C161.47 20.0008 150.446 12.6349 138.313 7.60983C126.18 2.58474 113.176 -0.00108979 100.043 3.4454e-07ZM131.838 151.525C131.464 152.458 130.894 153.3 130.168 153.996C129.441 154.691 128.575 155.223 127.626 155.556C126.677 155.889 125.668 156.015 124.666 155.926C123.665 155.837 122.694 155.535 121.818 155.04L94.6716 133.946L77.2484 150.02C76.8441 150.319 76.3712 150.511 75.8732 150.579C75.3751 150.647 74.868 150.589 74.3984 150.409L77.7384 120.525L77.8453 120.61L77.9136 120.02C77.9136 120.02 126.764 75.5445 128.754 73.6496C130.768 71.7596 130.104 71.3496 130.104 71.3496C130.218 69.0443 126.488 71.3496 126.488 71.3496L61.7632 112.99L34.8083 103.81C34.8083 103.81 30.6683 102.325 30.2783 99.06C29.8683 95.82 34.9432 94.06 34.9432 94.06L142.113 51.4849C142.113 51.4849 150.923 47.5597 150.923 54.06L131.838 151.525Z"
              fill="#2AABEE"/>
    </g>
</svg>
